<svg xmlns="http://www.w3.org/2000/svg" viewBox="0 0 24 30" fill="auto" x="0px" y="0px"><path fill-rule="evenodd" clip-rule="evenodd" d="M4.06066 18.9099C3.8654 19.1052 3.8654 19.4217 4.06066 19.617C4.25592 19.8123 4.57251 19.8123 4.76777 19.617L7.9161 16.4687L9.37047 15.0143L10.0798 14.305L14.305 10.0798L15.0143 9.37047L16.6036 7.78118L19.617 4.76777C19.8123 4.57251 19.8123 4.25592 19.617 4.06066C19.4217 3.8654 19.1052 3.8654 18.9099 4.06066L15.6286 7.34197L14.2667 8.70382L13.5435 9.42702L9.42702 13.5435L8.70382 14.2667L6.98 15.9906L4.06066 18.9099ZM9.51041 15.5815L8.41653 16.6754C9.32475 17.0218 10.2746 17.2314 11.2332 17.3042L9.51041 15.5815ZM8.43924 13.8242L6.54225 15.7212C5.59395 15.103 4.73031 14.3071 4 13.3333L3.45 12.6C3.18333 12.2444 3.18333 11.7556 3.45 11.4L4 10.6667C6.69994 7.06674 11.2223 5.89671 15.1069 7.15658L13.8242 8.43924C13.2772 8.15846 12.6571 8 12 8C9.79086 8 8 9.79086 8 12C8 12.6571 8.15846 13.2772 8.43924 13.8242ZM12 9C12.3761 9 12.7361 9.06922 13.0678 9.19561L9.19561 13.0678C9.06922 12.7361 9 12.3761 9 12C9 10.3431 10.3431 9 12 9ZM11.6317 13.4602L10.4957 14.5962C10.9379 14.853 11.4518 15 12 15C12.3509 15 12.6877 14.9398 13.0006 14.8291L11.6317 13.4602ZM13.9041 14.3184L12.3388 12.753L13.753 11.3388L14.9519 12.5377C14.8229 13.2509 14.4417 13.8763 13.9041 14.3184ZM14.5962 10.4957L14.4602 10.6317L14.8298 11.0014C14.7674 10.8246 14.689 10.6555 14.5962 10.4957ZM15.8744 9.21752L15.3215 9.77041C15.75 10.4075 16 11.1745 16 12C16 12.0563 15.9988 12.1124 15.9965 12.1681L18.6426 14.8141C19.1301 14.3788 19.5841 13.8871 19.9958 13.3389L15.8744 9.21752ZM20.5992 12.5281L16.5815 8.51041L17.0595 8.03243C18.1645 8.68013 19.1687 9.55821 20 10.6667L20.55 11.4C20.7991 11.7321 20.8155 12.1807 20.5992 12.5281ZM15.7659 13.3517L17.8593 15.4451C17.2916 15.8565 16.6892 16.2008 16.0635 16.4777L14.6138 15.028C15.1299 14.5821 15.5308 14.0064 15.7659 13.3517ZM13.7631 15.5915L15.0373 16.8657C14.2615 17.111 13.461 17.2598 12.6552 17.3121L11.2782 15.935C11.5123 15.9777 11.7536 16 12 16C12.6328 16 13.2312 15.8531 13.7631 15.5915Z" fill="black"/><text x="0" y="39" fill="#000000" font-size="5px" font-weight="bold" font-family="'Helvetica Neue', Helvetica, Arial-Unicode, Arial, Sans-serif">Created by Florent Lenormand</text><text x="0" y="44" fill="#000000" font-size="5px" font-weight="bold" font-family="'Helvetica Neue', Helvetica, Arial-Unicode, Arial, Sans-serif">from the Noun Project</text></svg>