<svg xmlns="http://www.w3.org/2000/svg" viewBox="0 0 24 30" fill="auto" x="0px" y="0px"><path fill-rule="evenodd" clip-rule="evenodd" d="M12 4C9.26651 4 7 6.29163 7 9.18182C7 9.7341 6.55228 10.1818 6 10.1818C5.44772 10.1818 5 9.7341 5 9.18182C5 5.24376 8.10608 2 12 2C15.8939 2 19 5.24376 19 9.18182C19 11.5807 17.8517 13.7134 16.0784 15.0194C15.9993 15.0777 15.9201 15.2254 15.9467 15.4063C15.9819 15.645 16 15.8888 16 16.1364C16 18.7941 13.9013 21 11.25 21C9.28343 21 7.61579 19.7804 6.89139 18.0722C6.67577 17.5638 6.91316 16.9768 7.42162 16.7612C7.93007 16.5456 8.51705 16.7829 8.73267 17.2914C9.16561 18.3123 10.1411 19 11.25 19C12.7409 19 14 17.7463 14 16.1364C14 15.9866 13.989 15.8401 13.9681 15.6977C13.8463 14.8707 14.1512 13.955 14.8924 13.4091C16.1637 12.4727 17 10.9329 17 9.18182C17 6.29163 14.7335 4 12 4ZM15 9C15 10.6569 13.6569 12 12 12C10.3431 12 9 10.6569 9 9C9 7.34315 10.3431 6 12 6C13.6569 6 15 7.34315 15 9ZM19.2071 2.42893C18.8166 2.03841 18.1834 2.03841 17.7929 2.42893C17.4024 2.81946 17.4024 3.45262 17.7929 3.84314C20.9171 6.96734 20.9171 12.0327 17.7929 15.1569C17.4024 15.5474 17.4024 16.1805 17.7929 16.5711C18.1834 16.9616 18.8166 16.9616 19.2071 16.5711C23.1124 12.6658 23.1124 6.33417 19.2071 2.42893Z" fill="black"/><text x="0" y="39" fill="#000000" font-size="5px" font-weight="bold" font-family="'Helvetica Neue', Helvetica, Arial-Unicode, Arial, Sans-serif">Created by Florent Lenormand</text><text x="0" y="44" fill="#000000" font-size="5px" font-weight="bold" font-family="'Helvetica Neue', Helvetica, Arial-Unicode, Arial, Sans-serif">from the Noun Project</text></svg>